# xmcd
#
# Track frame offsets: 
#        150
#        16465
#        26585
#        39997
#        49657
#        68867
#        84705
#        100865
#        115670
#        129295
#        139837
#        152030
#        168270
#        185230
#        195232
#        210040
#        224882
#        238485
#        252297
#        264375
#
# Disc length: 3694 seconds
#
# Revision: 3
# Processed by: cddbd v1.5.2PL0 Copyright (c) Steve Scherf et al.
# Submitted via: ExactAudioCopy v0.95a4
#
DISCID=190e6c14
DTITLE=Ray Charles - Greatest Country And Western Hits
DYEAR=1988
DGENRE=country
TTITLE0=Your Cheating Heart
TTITLE1=Hey Good Lookin'
TTITLE2=Take These Chains From My Heart
TTITLE3=Don't Tell Me Your Troubles
TTITLE4=I Can't Stop Loving You
TTITLE5=Just A Little Lovin' (Will Go A Long Way)
TTITLE6=It Makes No Difference Now
TTITLE7=You Don't Know Me
TTITLE8=You Are My Sunshine
TTITLE9=I'll Never Stand In Your Way
TTITLE10=Someday (You'll Want Me To Want You)
TTITLE11=I Love You So Much It Hurts
TTITLE12=Careless Love
TTITLE13=Oh, Lonesome Me
TTITLE14=Hang Your Head In Shame
TTITLE15=Midnight
TTITLE16=No Letter Today
TTITLE17=Crying Time
TTITLE18=Together Agian
TTITLE19=Don't Let Her Know
EXTD=
EXTT0=
EXTT1=
EXTT2=
EXTT3=
EXTT4=
EXTT5=
EXTT6=
EXTT7=
EXTT8=
EXTT9=
EXTT10=
EXTT11=
EXTT12=
EXTT13=
EXTT14=
EXTT15=
EXTT16=
EXTT17=
EXTT18=
EXTT19=
PLAYORDER=
